<?xml version="1.0" encoding="UTF-8" standalone="no"?>
<!-- Created with Inkscape (http://www.inkscape.org/) -->

<svg
   xmlns:dc="http://purl.org/dc/elements/1.1/"
   xmlns:cc="http://creativecommons.org/ns#"
   xmlns:rdf="http://www.w3.org/1999/02/22-rdf-syntax-ns#"
   xmlns:svg="http://www.w3.org/2000/svg"
   xmlns="http://www.w3.org/2000/svg"
   xmlns:sodipodi="http://sodipodi.sourceforge.net/DTD/sodipodi-0.dtd"
   xmlns:inkscape="http://www.inkscape.org/namespaces/inkscape"
   width="512"
   height="512"
   viewBox="0 0 135.46666 135.46667"
   version="1.1"
   id="svg8"
   inkscape:version="0.92.3 (2405546, 2018-03-11)"
   sodipodi:docname="icon.svg">
  <defs
     id="defs2" />
  <sodipodi:namedview
     id="base"
     pagecolor="#ffffff"
     bordercolor="#666666"
     borderopacity="1.0"
     inkscape:pageopacity="0.0"
     inkscape:pageshadow="2"
     inkscape:zoom="0.35"
     inkscape:cx="-220"
     inkscape:cy="560"
     inkscape:document-units="mm"
     inkscape:current-layer="layer1"
     showgrid="false"
     units="px"
     inkscape:window-width="2560"
     inkscape:window-height="1413"
     inkscape:window-x="0"
     inkscape:window-y="27"
     inkscape:window-maximized="1" />
  <metadata
     id="metadata5">
    <rdf:RDF>
      <cc:Work
         rdf:about="">
        <dc:format>image/svg+xml</dc:format>
        <dc:type
           rdf:resource="http://purl.org/dc/dcmitype/StillImage" />
        <dc:title></dc:title>
      </cc:Work>
    </rdf:RDF>
  </metadata>
  <g
     inkscape:label="Layer 1"
     inkscape:groupmode="layer"
     id="layer1"
     transform="translate(0,-161.53332)">
    <path
       style="stroke-width:0.01023858"
       inkscape:connector-curvature="0"
       d="m 18.113608,180.2998 c -0.911232,0.23549 -1.402684,0.60407 -2.549404,1.93509 -4.474259,5.17049 -8.4570648,12.76751 -10.7812233,20.58978 -1.3003,4.39236 -2.0989072,8.69256 -2.5698825,13.87327 -0.2354878,2.4675 -0.2559661,8.84614 -0.061432,11.21125 0.9214721,10.71979 3.5630262,19.53521 8.3649198,27.90013 1.535786,2.6825 4.156861,6.3172 5.661934,7.86322 1.146718,1.17743 2.262723,1.57674 3.51183,1.25934 1.586981,-0.40953 2.65179,-1.72008 2.662029,-3.28657 0.01025,-1.13649 -0.204769,-1.62794 -1.259342,-2.84633 -4.648315,-5.38549 -8.41611,-13.02347 -10.361442,-21.00956 -1.1364814,-4.63808 -1.668889,-8.80518 -1.7712754,-13.82208 -0.1228621,-6.11244 0.4812144,-11.50816 1.9146154,-17.09842 1.976046,-7.75061 5.68241,-15.18382 10.084997,-20.27239 1.218392,-1.41293 1.423165,-1.86342 1.361733,-3.12277 -0.03072,-0.71671 -0.09215,-0.96242 -0.337875,-1.42316 -0.34811,-0.6348 -0.982901,-1.22864 -1.658649,-1.54603 -0.532405,-0.24573 -1.617696,-0.34811 -2.211533,-0.20477 z"
       id="path979" />
    <path
       style="stroke-width:0.01023858"
       inkscape:connector-curvature="0"
       d="m 115.247,180.28956 c -1.54601,0.3993 -2.60059,1.77127 -2.60059,3.38897 0,1.08529 0.24572,1.60746 1.3822,2.918 4.4026,5.08857 8.10896,12.52178 10.085,20.27239 1.4334,5.59026 2.03749,10.98598 1.91462,17.09842 -0.10239,5.0169 -0.63479,9.184 -1.77128,13.82208 -1.94533,7.98609 -5.71313,15.62407 -10.36144,21.00956 -1.05456,1.21839 -1.26957,1.70984 -1.25934,2.84633 0.0102,1.90437 1.48459,3.32753 3.44016,3.34801 1.41293,0.0204 2.30368,-0.63479 4.35139,-3.19444 1.04435,-1.31053 3.14325,-4.41283 4.04424,-5.98956 4.8019,-8.36492 7.44345,-17.18034 8.36492,-27.90013 0.19454,-2.36511 0.17405,-8.74375 -0.0615,-11.21125 -0.47097,-5.18071 -1.26959,-9.48091 -2.56988,-13.87327 -2.32416,-7.82227 -6.28649,-15.38858 -10.78122,-20.58978 -0.94196,-1.10576 -1.41293,-1.49484 -2.10916,-1.78151 -0.46074,-0.19454 -1.60745,-0.28668 -2.06819,-0.16382 z"
       id="path981" />
    <path
       style="stroke-width:0.01023858"
       inkscape:connector-curvature="0"
       d="m 34.679629,193.33351 c -1.034097,0.34811 -1.761036,1.00339 -3.214912,2.93848 -2.999905,3.9828 -5.436689,9.14305 -6.767704,14.3852 -2.252486,8.80517 -1.935091,18.5523 0.849803,26.83531 1.720083,5.07833 4.566407,10.2181 7.27963,13.12586 0.767893,0.81908 1.208153,1.10577 2.027238,1.31053 2.385588,0.61432 4.679032,-1.5665 4.187578,-3.9828 -0.153577,-0.77814 -0.419782,-1.23887 -1.228628,-2.17058 -1.279822,-1.46412 -2.580122,-3.47088 -3.696128,-5.68242 -4.484498,-8.92803 -5.231914,-20.47715 -1.935091,-30.25499 1.402687,-4.15686 3.378731,-7.78132 5.754081,-10.54573 0.337873,-0.39931 0.726938,-0.96244 0.860042,-1.24911 1.013619,-2.21153 -0.532408,-4.68927 -2.979428,-4.81213 -0.419782,-0.0102 -0.900994,0.0307 -1.136481,0.10238 z"
       id="path983" />
    <path
       style="stroke-width:0.01023858"
       inkscape:connector-curvature="0"
       d="m 98.363579,193.33351 c -0.921472,0.30716 -1.709837,0.95219 -2.078426,1.67913 -0.737178,1.45388 -0.491453,2.81561 0.767893,4.27973 3.358254,3.91113 5.958864,9.65497 7.095344,15.66502 1.02386,5.49811 0.90099,11.52864 -0.35835,17.00628 -1.10577,4.79165 -3.36851,9.74712 -5.90767,12.92108 -1.842943,2.30368 -1.863422,2.34464 -1.996523,3.47088 -0.09215,0.81908 0.276442,1.84294 0.890758,2.52893 1.09552,1.18768 2.713217,1.4846 4.167095,0.75766 1.33103,-0.66552 4.19783,-4.60737 6.08173,-8.34445 2.05794,-4.10566 3.57326,-8.84613 4.18758,-13.13609 1.27981,-8.85637 0.38906,-17.08819 -2.69275,-24.93094 -1.94532,-4.94523 -5.83599,-10.83241 -7.73014,-11.70269 -0.68598,-0.30717 -1.801983,-0.39931 -2.426541,-0.19454 z"
       id="path985" />
    <path
       style="stroke-width:0.01023858"
       inkscape:connector-curvature="0"
       d="m 49.576758,206.29555 c -1.116003,0.36859 -2.037474,1.27982 -3.409446,3.38897 -1.627933,2.51869 -2.723459,5.50835 -3.3173,9.06114 -0.266203,1.6177 -0.266203,6.16363 0,7.78133 0.737178,4.4333 2.467499,8.38539 4.853088,11.08837 0.675744,0.7679 1.126244,1.07505 1.935091,1.31054 1.064812,0.30716 2.354873,0.0102 3.225152,-0.75765 0.972665,-0.84981 1.371968,-2.50846 0.911233,-3.73708 -0.122863,-0.32764 -0.491452,-0.92148 -0.819087,-1.33102 -2.508449,-3.12277 -3.696126,-7.31035 -3.368492,-11.86651 0.245727,-3.53231 1.412926,-6.6858 3.327539,-9.04067 0.86004,-1.06481 1.013619,-1.45387 1.013619,-2.55964 0,-0.79861 -0.04096,-0.99314 -0.286681,-1.49483 -0.327635,-0.68599 -1.023858,-1.35149 -1.689365,-1.65866 -0.522167,-0.22524 -1.914614,-0.33786 -2.375351,-0.18429 z"
       id="path987" />
    <path
       style="stroke-width:0.01023858"
       inkscape:connector-curvature="0"
       d="m 82.85214,206.37746 c -1.607462,0.55288 -2.580122,2.22177 -2.252492,3.85994 0.15358,0.77814 0.307159,1.07506 0.972668,1.90438 1.382208,1.72008 2.283202,3.57327 2.8668,5.87694 0.819088,3.22516 0.716704,7.07486 -0.2662,10.17715 -0.440263,1.40268 -1.39245,3.30706 -2.160343,4.31044 -1.023855,1.34125 -1.279818,1.80199 -1.40268,2.49821 -0.358353,1.92486 1.023855,3.79851 2.999897,4.02377 1.249111,0.15357 2.436788,-0.41979 3.440162,-1.65866 1.842944,-2.26271 3.276348,-5.19095 4.074958,-8.28301 0.40954,-1.59721 0.511929,-2.16033 0.685981,-3.89065 0.501697,-4.86333 -0.409539,-9.80856 -2.559643,-13.95519 -0.982901,-1.88389 -2.457256,-3.87018 -3.276344,-4.4333 -0.860043,-0.59384 -2.160341,-0.76789 -3.122764,-0.43002 z"
       id="path989" />
    <g
       id="g2148"
       transform="matrix(0.61482874,0,0,0.61482874,228.10852,170.44868)">
      <path
         id="path928"
         d="m -226.07477,84.135123 c 0,-19.5984 -15.88493,-35.48334 -35.48617,-35.48334 -19.60124,0 -35.48335,15.88494 -35.48335,35.48334 0,28.079057 35.48335,69.629727 35.48335,69.629727 0,0 35.48617,-41.69513 35.48617,-69.629727 z m -52.98566,-2.11874 c 0,-9.66749 7.83766,-17.50232 17.50232,-17.50232 9.66466,0 17.50232,7.83483 17.50232,17.50232 0,9.66749 -7.83766,17.50232 -17.50232,17.50232 -9.66466,0 -17.50232,-7.83483 -17.50232,-17.50232 z"
         style="fill:#006df0;stroke-width:2.83254933"
         inkscape:connector-curvature="0" />
      <circle
         id="circle930"
         r="8.6052847"
         cy="82.01638"
         cx="-261.56094"
         style="fill:#006df0;stroke-width:2.83254933" />
    </g>
  </g>
</svg>
